<svg width="108" height="36" viewBox="0 0 108 36" fill="none" xmlns="http://www.w3.org/2000/svg">
<path d="M3.1849 8.14143C4.94386 8.14143 6.36979 6.78395 6.36979 5.10941C6.36979 3.43487 4.94386 2.07739 3.1849 2.07739C1.42593 2.07739 0 3.43487 0 5.10941C0 6.78395 1.42593 8.14143 3.1849 8.14143Z" fill="#1A2935"/>
<path d="M19.1087 15.7215C20.8677 15.7215 22.2936 14.364 22.2936 12.6895C22.2936 11.015 20.8677 9.65747 19.1087 9.65747C17.3498 9.65747 15.9238 11.015 15.9238 12.6895C15.9238 14.364 17.3498 15.7215 19.1087 15.7215Z" fill="#1A2935"/>
<path d="M3.1849 23.3013C4.94386 23.3013 6.36979 21.9439 6.36979 20.2693C6.36979 18.5948 4.94386 17.2373 3.1849 17.2373C1.42593 17.2373 0 18.5948 0 20.2693C0 21.9439 1.42593 23.3013 3.1849 23.3013Z" fill="#1A2935"/>
<path d="M3.18451 5.10938L19.109 12.6894L3.18451 20.2695V5.10938Z" stroke="#1A2935" stroke-width="2"/>
<path d="M96.8682 3.76293H93.0693V0.632812H96.8682V3.76293ZM93.0693 5.90318H96.8682V19.7345H93.0693V5.90318Z" fill="#1A2935"/>
<path d="M77.1048 5.90311H80.7165V7.82933H80.7967C81.2783 7.02674 81.9025 6.44709 82.6694 6.09038C83.4364 5.71584 84.2211 5.52856 85.0237 5.52856C86.0403 5.52856 86.8697 5.67125 87.5118 5.95661C88.1717 6.22415 88.6889 6.60761 89.0634 7.107C89.438 7.58856 89.6966 8.18604 89.8393 8.89946C89.9998 9.59504 90.0801 10.3709 90.0801 11.227V19.7345H86.2811V11.9226C86.2811 10.7811 86.1028 9.93391 85.7461 9.38101C85.3893 8.81028 84.7562 8.52491 83.8466 8.52491C82.8121 8.52491 82.063 8.83703 81.5993 9.46127C81.1356 10.0677 80.9037 11.0754 80.9037 12.4844V19.7345H77.1048V5.90311Z" fill="#1A2935"/>
<path d="M61.5782 8.44472H59.3042V5.90318H61.5782V4.83305C61.5782 3.60241 61.9617 2.59471 62.7286 1.80995C63.4955 1.02519 64.6548 0.632812 66.2065 0.632812C66.5454 0.632812 66.8842 0.650648 67.2231 0.68632C67.562 0.704155 67.892 0.72199 68.213 0.739825V3.57566C67.7671 3.52215 67.3034 3.4954 66.8218 3.4954C66.3046 3.4954 65.9301 3.62024 65.6982 3.86994C65.4842 4.1018 65.3772 4.5031 65.3772 5.07383V5.90318H67.999V8.44472H65.3772V19.7345H61.5782V8.44472ZM70.2997 5.90318H74.0987V19.7345H70.2997V5.90318ZM74.0987 3.76293H70.2997V0.632812H74.0987V3.76293Z" fill="#1A2935"/>
<path d="M52.6692 8.44472H50.3952V5.90318H52.6692V4.83305C52.6692 3.60241 53.0527 2.59471 53.8196 1.80995C54.5865 1.02519 55.7458 0.632812 57.2975 0.632812C57.6364 0.632812 57.9753 0.650648 58.3141 0.68632C58.653 0.704155 58.983 0.72199 59.304 0.739825V3.57566C58.8581 3.52215 58.3944 3.4954 57.9128 3.4954C57.3956 3.4954 57.0211 3.62024 56.7892 3.86994C56.5752 4.1018 56.4682 4.5031 56.4682 5.07383V5.90318H59.09V8.44472H56.4682V19.7345H52.6692V8.44472Z" fill="#1A2935"/>
<path d="M36.3175 10.1569C36.371 9.26508 36.5939 8.52491 36.9863 7.93635C37.3787 7.34778 37.8781 6.87514 38.4845 6.51843C39.0909 6.16172 39.7686 5.91203 40.5177 5.76934C41.2846 5.60882 42.0515 5.52856 42.8185 5.52856C43.514 5.52856 44.2185 5.58207 44.932 5.68908C45.6454 5.77826 46.2964 5.96553 46.8849 6.2509C47.4735 6.53627 47.9551 6.93756 48.3296 7.45479C48.7042 7.95418 48.8914 8.62301 48.8914 9.46127V16.6579C48.8914 17.2821 48.9271 17.8796 48.9984 18.4503C49.0698 19.0211 49.1946 19.4491 49.373 19.7345H45.5205C45.4492 19.5204 45.3868 19.3064 45.3333 19.0924C45.2976 18.8605 45.2708 18.6287 45.253 18.3968C44.6466 19.0211 43.9332 19.458 43.1127 19.7077C42.2923 19.9574 41.4541 20.0823 40.598 20.0823C39.938 20.0823 39.3227 20.002 38.752 19.8415C38.1813 19.681 37.6819 19.4313 37.2538 19.0924C36.8258 18.7535 36.4869 18.3255 36.2372 17.8082C36.0053 17.291 35.8894 16.6757 35.8894 15.9623C35.8894 15.1775 36.0232 14.5354 36.2907 14.0361C36.5761 13.5188 36.9328 13.1086 37.3608 12.8054C37.8067 12.5022 38.3061 12.2793 38.859 12.1366C39.4297 11.9761 40.0005 11.8512 40.5712 11.762C41.1419 11.6729 41.7037 11.6015 42.2566 11.548C42.8095 11.4945 43.3 11.4143 43.7281 11.3072C44.1561 11.2002 44.495 11.0486 44.7447 10.8524C44.9944 10.6384 45.1103 10.3352 45.0925 9.94283C45.0925 9.53262 45.0211 9.21158 44.8785 8.97972C44.7536 8.73002 44.5753 8.54275 44.3434 8.4179C44.1294 8.27522 43.8708 8.18604 43.5676 8.15037C43.2822 8.09686 42.9701 8.07011 42.6312 8.07011C41.8821 8.07011 41.2935 8.23063 40.8655 8.55167C40.4374 8.87271 40.1877 9.40777 40.1164 10.1569H36.3175ZM45.0925 12.9659C44.932 13.1086 44.7269 13.2245 44.4772 13.3137C44.2453 13.3851 43.9867 13.4475 43.7013 13.501C43.4338 13.5545 43.1484 13.5991 42.8452 13.6348C42.542 13.6704 42.2388 13.715 41.9356 13.7685C41.6502 13.822 41.3649 13.8934 41.0795 13.9826C40.812 14.0717 40.5712 14.1966 40.3572 14.3571C40.161 14.4998 40.0005 14.6871 39.8756 14.9189C39.7508 15.1508 39.6883 15.4451 39.6883 15.8018C39.6883 16.1406 39.7508 16.426 39.8756 16.6579C40.0005 16.8897 40.1699 17.077 40.3839 17.2197C40.598 17.3445 40.8477 17.4337 41.133 17.4872C41.4184 17.5407 41.7127 17.5675 42.0159 17.5675C42.765 17.5675 43.3446 17.4426 43.7548 17.1929C44.165 16.9432 44.4682 16.6489 44.6644 16.3101C44.8606 15.9534 44.9765 15.5967 45.0122 15.2399C45.0657 14.8832 45.0925 14.5979 45.0925 14.3838V12.9659Z" fill="#1A2935"/>
<path d="M104.762 32.4152H106.332C106.344 32.3558 106.35 32.3052 106.35 32.2636C106.35 32.0912 106.293 31.9456 106.18 31.8267C106.073 31.7018 105.907 31.6394 105.681 31.6394C105.443 31.6394 105.247 31.7078 105.092 31.8445C104.938 31.9753 104.828 32.1655 104.762 32.4152ZM106.029 33.9045H107.723C107.693 33.9818 107.643 34.1036 107.572 34.2701C107.5 34.4306 107.375 34.5941 107.197 34.7606C107.025 34.9211 106.784 35.0638 106.475 35.1886C106.165 35.3075 105.761 35.367 105.262 35.367C104.852 35.367 104.501 35.3135 104.21 35.2065C103.918 35.0995 103.68 34.9538 103.496 34.7695C103.312 34.5852 103.175 34.3682 103.086 34.1185C103.003 33.8688 102.961 33.6043 102.961 33.3248C102.961 32.7957 103.05 32.3528 103.229 31.9961C103.413 31.6334 103.642 31.3421 103.915 31.1222C104.189 30.9022 104.489 30.7446 104.816 30.6495C105.143 30.5544 105.449 30.5068 105.734 30.5068C105.99 30.5068 106.252 30.5455 106.519 30.6228C106.787 30.6941 107.031 30.813 107.25 30.9795C107.47 31.14 107.649 31.3481 107.786 31.6037C107.928 31.8594 108 32.1685 108 32.5312C108 32.656 107.994 32.7868 107.982 32.9235C107.976 33.0543 107.952 33.1911 107.91 33.3337H104.611C104.611 33.4586 104.623 33.5745 104.647 33.6815C104.67 33.7886 104.709 33.8837 104.762 33.9669C104.822 34.0501 104.896 34.1155 104.985 34.1631C105.081 34.2107 105.196 34.2344 105.333 34.2344C105.523 34.2344 105.675 34.2017 105.788 34.1363C105.901 34.065 105.981 33.9877 106.029 33.9045Z" fill="#1A2935"/>
<path d="M98.749 35.2511L99.7032 30.6228H101.415L101.264 31.3451H101.282C101.359 31.2203 101.451 31.1073 101.558 31.0062C101.665 30.9052 101.778 30.819 101.897 30.7476C102.022 30.6703 102.147 30.6109 102.271 30.5693C102.396 30.5276 102.515 30.5068 102.628 30.5068C102.777 30.5068 102.896 30.5128 102.985 30.5247C103.08 30.5306 103.169 30.5485 103.252 30.5782L102.922 32.1388C102.815 32.0972 102.702 32.0674 102.584 32.0496C102.471 32.0318 102.358 32.0228 102.245 32.0228C102.054 32.0228 101.888 32.0466 101.745 32.0942C101.609 32.1358 101.487 32.2071 101.38 32.3082C101.273 32.4093 101.181 32.543 101.103 32.7095C101.032 32.87 100.969 33.0722 100.916 33.3159L100.515 35.2511H98.749Z" fill="#1A2935"/>
<path d="M94.9513 33.9223C94.9513 34.0828 95.0077 34.1898 95.1207 34.2434C95.2396 34.2969 95.3704 34.3236 95.5131 34.3236C95.8103 34.3236 96.0273 34.2225 96.1641 34.0204C96.3067 33.8183 96.4048 33.5448 96.4583 33.2C96.3157 33.2713 96.1641 33.3219 96.0035 33.3516C95.843 33.3754 95.6825 33.3932 95.522 33.4051C95.3734 33.417 95.2396 33.4645 95.1207 33.5478C95.0077 33.6251 94.9513 33.7499 94.9513 33.9223ZM95.4596 32.0228H93.8009C93.8722 31.7137 93.9822 31.461 94.1308 31.2648C94.2794 31.0687 94.4548 30.9141 94.657 30.8011C94.865 30.6882 95.0969 30.6109 95.3526 30.5693C95.6082 30.5276 95.8787 30.5068 96.1641 30.5068C96.3721 30.5068 96.607 30.5187 96.8686 30.5425C97.1301 30.5663 97.3739 30.6198 97.5998 30.703C97.8317 30.7863 98.0249 30.9111 98.1795 31.0776C98.334 31.2381 98.4113 31.4581 98.4113 31.7375C98.4113 31.8564 98.3965 32.011 98.3667 32.2012C98.343 32.3855 98.3103 32.5847 98.2686 32.7987C98.227 33.0127 98.1795 33.2297 98.126 33.4497C98.0784 33.6696 98.0338 33.8748 97.9922 34.065C97.9506 34.2552 97.9149 34.4217 97.8852 34.5644C97.8614 34.7011 97.8495 34.7933 97.8495 34.8408C97.8495 35.0014 97.8733 35.1381 97.9208 35.2511H96.1908C96.167 35.1797 96.1492 35.1084 96.1373 35.037C96.1254 34.9597 96.1224 34.8825 96.1284 34.8052H96.1106C96.0333 34.9003 95.9381 34.9835 95.8252 35.0549C95.7182 35.1203 95.5993 35.1767 95.4685 35.2243C95.3436 35.2719 95.2128 35.3075 95.0761 35.3313C94.9453 35.3551 94.8145 35.367 94.6837 35.367C94.4875 35.367 94.2973 35.3432 94.113 35.2956C93.9346 35.254 93.7741 35.1857 93.6314 35.0905C93.4947 34.9895 93.3847 34.8616 93.3015 34.7071C93.2242 34.5466 93.1855 34.3563 93.1855 34.1363C93.1855 33.8331 93.239 33.5805 93.3461 33.3783C93.459 33.1762 93.6136 33.0127 93.8098 32.8879C94.006 32.763 94.2408 32.6709 94.5143 32.6114C94.7878 32.552 95.091 32.5103 95.4239 32.4866C95.5487 32.4806 95.6855 32.4747 95.8341 32.4687C95.9887 32.4628 96.1284 32.4479 96.2532 32.4241C96.384 32.3944 96.494 32.3439 96.5832 32.2725C96.6724 32.2012 96.717 32.0942 96.717 31.9515C96.717 31.791 96.6575 31.684 96.5386 31.6305C96.4256 31.577 96.3008 31.5502 96.1641 31.5502C95.9857 31.5502 95.8341 31.5859 95.7093 31.6572C95.5904 31.7286 95.5071 31.8504 95.4596 32.0228Z" fill="#1A2935"/>
<path d="M93.0982 32.3796H91.4038C91.4097 32.1596 91.3681 32.008 91.279 31.9248C91.1957 31.8356 91.0471 31.791 90.8331 31.791C90.6428 31.791 90.4853 31.8475 90.3604 31.9604C90.2356 32.0674 90.1345 32.1982 90.0572 32.3528C89.9859 32.5014 89.9354 32.659 89.9056 32.8254C89.8759 32.9919 89.861 33.1286 89.861 33.2357C89.861 33.3427 89.867 33.4497 89.8789 33.5567C89.8967 33.6578 89.9264 33.7469 89.9681 33.8242C90.0156 33.9015 90.078 33.9639 90.1553 34.0115C90.2386 34.0591 90.3426 34.0828 90.4674 34.0828C90.5863 34.0828 90.6874 34.0591 90.7706 34.0115C90.8598 33.9639 90.9341 33.9075 90.9936 33.8421C91.059 33.7707 91.1095 33.6964 91.1452 33.6191C91.1868 33.5418 91.2195 33.4705 91.2433 33.4051H92.9377C92.7831 34.0709 92.4977 34.5644 92.0816 34.8854C91.6654 35.2065 91.1214 35.367 90.4496 35.367C89.9562 35.367 89.5549 35.2986 89.2457 35.1619C88.9425 35.0192 88.7047 34.8438 88.5323 34.6357C88.3658 34.4277 88.2499 34.1988 88.1845 33.9491C88.1251 33.6994 88.0953 33.4675 88.0953 33.2535C88.0953 32.8611 88.1578 32.4985 88.2826 32.1655C88.4075 31.8267 88.5888 31.5353 88.8266 31.2916C89.0644 31.0419 89.3557 30.8487 89.7005 30.7119C90.0513 30.5752 90.4466 30.5068 90.8866 30.5068C91.2076 30.5068 91.5049 30.5455 91.7783 30.6228C92.0518 30.6941 92.2867 30.8071 92.4828 30.9616C92.679 31.1103 92.8306 31.3035 92.9377 31.5413C93.0506 31.7791 93.1041 32.0585 93.0982 32.3796Z" fill="#1A2935"/>
<path d="M81.7511 34.0828C81.9235 34.0828 82.0661 34.0353 82.1791 33.9401C82.298 33.8391 82.3931 33.7172 82.4645 33.5745C82.5358 33.4259 82.5863 33.2683 82.6161 33.1019C82.6517 32.9354 82.6696 32.7838 82.6696 32.6471C82.6696 32.3855 82.619 32.1774 82.518 32.0228C82.4229 31.8682 82.2623 31.791 82.0364 31.791C81.8581 31.791 81.7094 31.8415 81.5905 31.9426C81.4716 32.0377 81.3765 32.1596 81.3052 32.3082C81.2338 32.4568 81.1803 32.6233 81.1446 32.8076C81.1149 32.9859 81.1001 33.1583 81.1001 33.3248C81.1001 33.5329 81.1506 33.7112 81.2517 33.8599C81.3527 34.0085 81.5192 34.0828 81.7511 34.0828ZM82.1702 35.251L82.2772 34.7249H82.2594C81.9621 35.1529 81.5519 35.367 81.0287 35.367C80.6542 35.367 80.3539 35.2956 80.128 35.1529C79.9081 35.0103 79.7386 34.8378 79.6197 34.6357C79.5008 34.4336 79.4235 34.2285 79.3879 34.0204C79.3522 33.8064 79.3344 33.628 79.3344 33.4853C79.3344 33.0454 79.3879 32.6441 79.4949 32.2814C79.6078 31.9128 79.7654 31.5977 79.9675 31.3362C80.1696 31.0746 80.4104 30.8724 80.6898 30.7298C80.9752 30.5811 81.2903 30.5068 81.6351 30.5068C81.9027 30.5068 82.1523 30.5544 82.3842 30.6495C82.622 30.7446 82.8182 30.9259 82.9728 31.1935L83.4543 28.8838H85.22L83.9002 35.251H82.1702Z" fill="#1A2935"/>
<path d="M75.5186 32.4152H77.0881C77.1 32.3558 77.106 32.3052 77.106 32.2636C77.106 32.0912 77.0495 31.9456 76.9365 31.8267C76.8295 31.7018 76.663 31.6394 76.4371 31.6394C76.1993 31.6394 76.0031 31.7078 75.8486 31.8445C75.694 31.9753 75.584 32.1655 75.5186 32.4152ZM76.7849 33.9045H78.4793C78.4496 33.9818 78.399 34.1036 78.3277 34.2701C78.2563 34.4306 78.1315 34.5941 77.9531 34.7606C77.7807 34.9211 77.5399 35.0638 77.2308 35.1886C76.9217 35.3075 76.5174 35.367 76.018 35.367C75.6078 35.367 75.257 35.3135 74.9657 35.2065C74.6744 35.0995 74.4366 34.9538 74.2523 34.7695C74.068 34.5852 73.9312 34.3682 73.8421 34.1185C73.7588 33.8688 73.7172 33.6043 73.7172 33.3248C73.7172 32.7957 73.8064 32.3528 73.9848 31.9961C74.1691 31.6334 74.3979 31.3421 74.6714 31.1222C74.9449 30.9022 75.2451 30.7446 75.5721 30.6495C75.8991 30.5544 76.2053 30.5068 76.4906 30.5068C76.7463 30.5068 77.0079 30.5455 77.2754 30.6228C77.5429 30.6941 77.7867 30.813 78.0066 30.9795C78.2266 31.14 78.405 31.3481 78.5417 31.6037C78.6844 31.8594 78.7557 32.1685 78.7557 32.5312C78.7557 32.656 78.7498 32.7868 78.7379 32.9235C78.7319 33.0543 78.7082 33.1911 78.6666 33.3337H75.367C75.367 33.4586 75.3789 33.5745 75.4027 33.6815C75.4265 33.7886 75.4651 33.8837 75.5186 33.9669C75.5781 34.0501 75.6524 34.1155 75.7415 34.1631C75.8367 34.2107 75.9526 34.2344 76.0893 34.2344C76.2796 34.2344 76.4312 34.2017 76.5441 34.1363C76.6571 34.065 76.7374 33.9877 76.7849 33.9045Z" fill="#1A2935"/>
<path d="M73.1439 29.2227L72.8318 30.6227H73.786L73.5363 31.7107H72.5999L72.2878 33.2C72.2699 33.2772 72.2521 33.3545 72.2343 33.4318C72.2164 33.5091 72.2075 33.5864 72.2075 33.6637C72.2075 33.741 72.2313 33.8064 72.2789 33.8599C72.3324 33.9134 72.4275 33.9401 72.5642 33.9401C72.7069 33.9401 72.8199 33.9372 72.9031 33.9312C72.9923 33.9253 73.0725 33.9193 73.1439 33.9134L72.8764 35.1886C72.7218 35.2183 72.5642 35.2421 72.4037 35.2599C72.2432 35.2778 72.0827 35.2926 71.9222 35.3045C71.7319 35.3045 71.5417 35.2956 71.3514 35.2778C71.1612 35.2659 70.9799 35.2124 70.8074 35.1173C70.6529 35.034 70.534 34.9122 70.4507 34.7516C70.3675 34.5852 70.3259 34.4157 70.3259 34.2433C70.3259 34.1185 70.3348 34.0085 70.3526 33.9134C70.3764 33.8182 70.4002 33.7172 70.424 33.6102L70.8342 31.7107H70.0494L70.2991 30.6227H71.0661L71.3782 29.2227H73.1439Z" fill="#1A2935"/>
<path d="M69.8024 32.3796H68.108C68.114 32.1596 68.0724 32.008 67.9832 31.9248C67.9 31.8356 67.7513 31.791 67.5373 31.791C67.3471 31.791 67.1895 31.8475 67.0647 31.9604C66.9398 32.0674 66.8387 32.1982 66.7615 32.3528C66.6901 32.5014 66.6396 32.659 66.6099 32.8254C66.5801 32.9919 66.5653 33.1286 66.5653 33.2357C66.5653 33.3427 66.5712 33.4497 66.5831 33.5567C66.6009 33.6578 66.6307 33.7469 66.6723 33.8242C66.7198 33.9015 66.7823 33.9639 66.8596 34.0115C66.9428 34.0591 67.0468 34.0828 67.1717 34.0828C67.2906 34.0828 67.3916 34.0591 67.4749 34.0115C67.5641 33.9639 67.6384 33.9075 67.6978 33.8421C67.7632 33.7707 67.8137 33.6964 67.8494 33.6191C67.891 33.5418 67.9237 33.4705 67.9475 33.4051H69.6419C69.4873 34.0709 69.2019 34.5644 68.7858 34.8854C68.3696 35.2065 67.8256 35.367 67.1538 35.367C66.6604 35.367 66.2591 35.2986 65.9499 35.1619C65.6467 35.0192 65.4089 34.8438 65.2365 34.6357C65.0701 34.4277 64.9541 34.1988 64.8887 33.9491C64.8293 33.6994 64.7996 33.4675 64.7996 33.2535C64.7996 32.8611 64.862 32.4985 64.9868 32.1655C65.1117 31.8267 65.293 31.5353 65.5308 31.2916C65.7686 31.0419 66.0599 30.8487 66.4047 30.7119C66.7555 30.5752 67.1509 30.5068 67.5908 30.5068C67.9118 30.5068 68.2091 30.5455 68.4826 30.6228C68.7561 30.6941 68.9909 30.8071 69.1871 30.9616C69.3833 31.1103 69.5349 31.3035 69.6419 31.5413C69.7548 31.7791 69.8083 32.0585 69.8024 32.3796Z" fill="#1A2935"/>
<path d="M60.9838 32.4152H62.5533C62.5652 32.3558 62.5712 32.3052 62.5712 32.2636C62.5712 32.0912 62.5147 31.9456 62.4017 31.8267C62.2947 31.7018 62.1282 31.6394 61.9023 31.6394C61.6645 31.6394 61.4683 31.7078 61.3138 31.8445C61.1592 31.9753 61.0492 32.1655 60.9838 32.4152ZM62.2501 33.9045H63.9445C63.9148 33.9818 63.8642 34.1036 63.7929 34.2701C63.7215 34.4306 63.5967 34.5941 63.4183 34.7606C63.2459 34.9211 63.0052 35.0638 62.696 35.1886C62.3869 35.3075 61.9826 35.367 61.4832 35.367C61.073 35.367 60.7222 35.3135 60.4309 35.2065C60.1396 35.0995 59.9018 34.9538 59.7175 34.7695C59.5332 34.5852 59.3965 34.3682 59.3073 34.1185C59.224 33.8688 59.1824 33.6043 59.1824 33.3248C59.1824 32.7957 59.2716 32.3528 59.45 31.9961C59.6343 31.6334 59.8632 31.3421 60.1366 31.1222C60.4101 30.9022 60.7103 30.7446 61.0373 30.6495C61.3643 30.5544 61.6705 30.5068 61.9558 30.5068C62.2115 30.5068 62.4731 30.5455 62.7406 30.6228C63.0081 30.6941 63.2519 30.813 63.4719 30.9795C63.6918 31.14 63.8702 31.3481 64.0069 31.6037C64.1496 31.8594 64.2209 32.1685 64.2209 32.5312C64.2209 32.656 64.215 32.7868 64.2031 32.9235C64.1972 33.0543 64.1734 33.1911 64.1318 33.3337H60.8322C60.8322 33.4586 60.8441 33.5745 60.8679 33.6815C60.8917 33.7886 60.9303 33.8837 60.9838 33.9669C61.0433 34.0501 61.1176 34.1155 61.2068 34.1631C61.3019 34.2107 61.4178 34.2344 61.5545 34.2344C61.7448 34.2344 61.8964 34.2017 62.0093 34.1363C62.1223 34.065 62.2026 33.9877 62.2501 33.9045Z" fill="#1A2935"/>
<path d="M53.1502 35.2511L54.1133 30.6228H55.8166L55.6828 31.2113H55.7007C55.8731 31.0033 56.0841 30.8338 56.3338 30.703C56.5835 30.5722 56.8511 30.5068 57.1364 30.5068C57.3386 30.5068 57.5288 30.5306 57.7072 30.5782C57.8915 30.6198 58.052 30.6911 58.1887 30.7922C58.3314 30.8873 58.4414 31.0151 58.5187 31.1757C58.6019 31.3362 58.6435 31.5294 58.6435 31.7553C58.6435 31.8564 58.6316 31.9872 58.6078 32.1477C58.5841 32.3023 58.5543 32.4658 58.5187 32.6382L57.9569 35.2511H56.1911L56.6459 33.1286C56.6757 32.9919 56.7054 32.8552 56.7351 32.7184C56.7708 32.5757 56.7886 32.4568 56.7886 32.3617C56.7886 32.2131 56.7411 32.1031 56.6459 32.0318C56.5508 31.9545 56.4319 31.9158 56.2892 31.9158C56.1466 31.9158 56.0277 31.9396 55.9325 31.9872C55.8374 32.0347 55.7572 32.1001 55.6918 32.1834C55.6264 32.2607 55.5729 32.3528 55.5312 32.4598C55.4896 32.5668 55.4569 32.6798 55.4331 32.7987L54.9159 35.2511H53.1502Z" fill="#1A2935"/>
<path d="M47.3676 35.2511L48.3307 30.6228H50.034L49.9002 31.2113H49.9181C50.0905 31.0033 50.3015 30.8338 50.5512 30.703C50.8009 30.5722 51.0685 30.5068 51.3538 30.5068C51.556 30.5068 51.7462 30.5306 51.9246 30.5782C52.1089 30.6198 52.2694 30.6911 52.4061 30.7922C52.5488 30.8873 52.6588 31.0151 52.7361 31.1757C52.8193 31.3362 52.8609 31.5294 52.8609 31.7553C52.8609 31.8564 52.849 31.9872 52.8253 32.1477C52.8015 32.3023 52.7717 32.4658 52.7361 32.6382L52.1743 35.2511H50.4086L50.8634 33.1286C50.8931 32.9919 50.9228 32.8552 50.9525 32.7184C50.9882 32.5757 51.006 32.4568 51.006 32.3617C51.006 32.2131 50.9585 32.1031 50.8634 32.0318C50.7682 31.9545 50.6493 31.9158 50.5066 31.9158C50.364 31.9158 50.2451 31.9396 50.1499 31.9872C50.0548 32.0347 49.9746 32.1001 49.9092 32.1834C49.8438 32.2607 49.7903 32.3528 49.7486 32.4598C49.707 32.5668 49.6743 32.6798 49.6505 32.7987L49.1333 35.2511H47.3676Z" fill="#1A2935"/>
<path d="M43.7659 33.3337C43.7659 33.4289 43.7748 33.521 43.7926 33.6102C43.8105 33.6994 43.8432 33.7796 43.8907 33.851C43.9383 33.9223 44.0007 33.9788 44.078 34.0204C44.1612 34.062 44.2653 34.0828 44.3901 34.0828C44.5625 34.0828 44.7082 34.0293 44.8271 33.9223C44.9519 33.8094 45.05 33.6756 45.1214 33.521C45.1987 33.3664 45.2522 33.2089 45.2819 33.0484C45.3176 32.8879 45.3354 32.7571 45.3354 32.656C45.3354 32.3766 45.2908 32.1626 45.2016 32.0139C45.1184 31.8653 44.9579 31.791 44.7201 31.791C44.5417 31.791 44.3931 31.8504 44.2742 31.9693C44.1553 32.0823 44.0572 32.222 43.9799 32.3885C43.9026 32.549 43.8461 32.7184 43.8105 32.8968C43.7808 33.0692 43.7659 33.2148 43.7659 33.3337ZM42.0002 33.2C42.0002 32.8314 42.0596 32.4836 42.1785 32.1566C42.2974 31.8296 42.4758 31.5443 42.7136 31.3005C42.9574 31.0568 43.2546 30.8635 43.6054 30.7209C43.9621 30.5782 44.3782 30.5068 44.8538 30.5068C45.1927 30.5068 45.4989 30.5485 45.7724 30.6317C46.0518 30.709 46.2896 30.8308 46.4858 30.9973C46.682 31.1578 46.8336 31.3659 46.9406 31.6215C47.0476 31.8772 47.1011 32.1804 47.1011 32.5312C47.1011 32.8284 47.0536 33.1435 46.9584 33.4764C46.8693 33.8094 46.7177 34.1155 46.5036 34.395C46.2896 34.6744 46.0042 34.9062 45.6475 35.0905C45.2908 35.2748 44.8449 35.367 44.3099 35.367C43.9888 35.367 43.6886 35.3283 43.4092 35.2511C43.1298 35.1678 42.886 35.04 42.6779 34.8676C42.4698 34.6952 42.3034 34.4722 42.1785 34.1988C42.0596 33.9193 42.0002 33.5864 42.0002 33.2Z" fill="#1A2935"/>
<path d="M41.7168 32.3796H40.0225C40.0284 32.1596 39.9868 32.008 39.8976 31.9248C39.8144 31.8356 39.6658 31.791 39.4517 31.791C39.2615 31.791 39.1039 31.8475 38.9791 31.9604C38.8542 32.0674 38.7532 32.1982 38.6759 32.3528C38.6045 32.5014 38.554 32.659 38.5243 32.8254C38.4946 32.9919 38.4797 33.1286 38.4797 33.2357C38.4797 33.3427 38.4856 33.4497 38.4975 33.5567C38.5154 33.6578 38.5451 33.7469 38.5867 33.8242C38.6343 33.9015 38.6967 33.9639 38.774 34.0115C38.8572 34.0591 38.9613 34.0828 39.0861 34.0828C39.205 34.0828 39.3061 34.0591 39.3893 34.0115C39.4785 33.9639 39.5528 33.9075 39.6122 33.8421C39.6776 33.7707 39.7282 33.6964 39.7638 33.6191C39.8055 33.5418 39.8382 33.4705 39.8619 33.4051H41.5563C41.4017 34.0709 41.1164 34.5644 40.7002 34.8854C40.284 35.2065 39.7401 35.367 39.0683 35.367C38.5748 35.367 38.1735 35.2986 37.8644 35.1619C37.5612 35.0192 37.3234 34.8438 37.151 34.6357C36.9845 34.4277 36.8686 34.1988 36.8032 33.9491C36.7437 33.6994 36.714 33.4675 36.714 33.2535C36.714 32.8611 36.7764 32.4985 36.9013 32.1655C37.0261 31.8267 37.2074 31.5353 37.4452 31.2916C37.683 31.0419 37.9744 30.8487 38.3192 30.7119C38.6699 30.5752 39.0653 30.5068 39.5052 30.5068C39.8263 30.5068 40.1235 30.5455 40.397 30.6228C40.6705 30.6941 40.9053 30.8071 41.1015 30.9616C41.2977 31.1103 41.4493 31.3035 41.5563 31.5413C41.6693 31.7791 41.7228 32.0585 41.7168 32.3796Z" fill="#1A2935"/>
</svg>
