<svg width="25" height="24" viewBox="0 0 25 24" fill="none" xmlns="http://www.w3.org/2000/svg">
<path fill-rule="evenodd" clip-rule="evenodd" d="M12.9039 0.287258C15.1735 -0.31605 17.748 0.0427455 19.7468 1.25257C21.7568 2.46912 23.3023 4.55316 23.7082 6.82651C24.0874 8.95051 21.8896 10.7362 21.8248 12.8912C21.7463 15.5003 24.4359 18.0643 23.2991 20.4272C22.2043 22.7029 19.1018 23.3543 16.5689 23.8165C14.1865 24.2513 11.721 23.8945 9.50111 22.9453C7.44842 22.0677 6.12485 20.2592 4.56867 18.6858C2.91571 17.0146 0.531304 15.7196 0.096158 13.4364C-0.341333 11.1409 0.768076 8.69912 2.32784 6.92818C3.73566 5.32975 6.28394 5.48904 8.10042 4.34843C9.91889 3.20658 10.8174 0.8419 12.9039 0.287258Z" fill="white"/>
<path d="M17.0437 8.78352L12.0954 13.7835C12.0667 13.8126 12.0325 13.8356 11.995 13.8514C11.9575 13.8671 11.9172 13.8752 11.8766 13.8752C11.8359 13.8752 11.7957 13.8671 11.7581 13.8514C11.7206 13.8356 11.6865 13.8126 11.6578 13.7835L9.49286 11.596C9.43482 11.5374 9.40222 11.4579 9.40222 11.3749C9.40222 11.292 9.43482 11.2125 9.49286 11.1538C9.55089 11.0952 9.6296 11.0623 9.71167 11.0623C9.79374 11.0623 9.87244 11.0952 9.93048 11.1538L11.8766 13.1206L16.6061 8.34134C16.6641 8.2827 16.7429 8.24976 16.8249 8.24976C16.907 8.24976 16.9857 8.2827 17.0437 8.34134C17.1018 8.39997 17.1344 8.4795 17.1344 8.56243C17.1344 8.64536 17.1018 8.72489 17.0437 8.78352Z" fill="#6F97B9"/>
<path d="M12.8662 22.75C19.0152 22.75 24 17.7132 24 11.5C24 5.28679 19.0152 0.25 12.8662 0.25C6.71719 0.25 1.73242 5.28679 1.73242 11.5C1.73242 17.7132 6.71719 22.75 12.8662 22.75Z" stroke="#6F97B9" stroke-width="0.5" stroke-miterlimit="10"/>
</svg>
