<svg width="24" height="25" viewBox="0 0 24 25" fill="none" xmlns="http://www.w3.org/2000/svg">
<path fill-rule="evenodd" clip-rule="evenodd" d="M20 22.5C21.1046 22.5 22 21.6046 22 20.5V16.5C22 15.3954 21.1046 14.5 20 14.5L16 14.5C14.8954 14.5 14 15.3954 14 16.5L14 20.5C14 21.6046 14.8954 22.5 16 22.5H20ZM20 10.5C21.1046 10.5 22 9.60457 22 8.5L22 4.5C22 3.39543 21.1046 2.5 20 2.5H16C14.8954 2.5 14 3.39543 14 4.5V8.5C14 9.60457 14.8954 10.5 16 10.5L20 10.5ZM10 20.5C10 21.6046 9.10457 22.5 8 22.5H4C2.89543 22.5 2 21.6046 2 20.5V16.5C2 15.3954 2.89543 14.5 4 14.5L8 14.5C9.10457 14.5 10 15.3954 10 16.5L10 20.5Z" fill="#1A2935"/>
</svg>
