<svg width="54" height="56" viewBox="0 0 54 56" fill="none" xmlns="http://www.w3.org/2000/svg">
<g filter="url(#filter0_d_2026_264)">
<path fill-rule="evenodd" clip-rule="evenodd" d="M27.3555 0.47744C23.7245 -0.525293 19.6057 0.0710456 16.4078 2.08185C13.1921 4.10383 10.7196 7.56762 10.0703 11.3461C9.46362 14.8763 12.9797 17.8442 13.0834 21.426C13.209 25.7624 8.90609 30.0239 10.7247 33.9512C12.4762 37.7336 17.4397 38.8162 21.492 39.5845C25.3035 40.3072 29.2479 39.714 32.7994 38.1365C36.0834 36.6779 38.2009 33.672 40.6906 31.057C43.3351 28.2793 47.1497 26.127 47.8459 22.3321C48.5458 18.5168 46.771 14.4585 44.2756 11.5151C42.0233 8.85837 37.9464 9.12311 35.0403 7.22736C32.131 5.32953 30.6936 1.39929 27.3555 0.47744Z" fill="white"/>
<path d="M29.2108 36.6483C37.9319 36.6483 45.0018 29.2513 45.0018 20.1266C45.0018 11.0019 37.9319 3.60486 29.2108 3.60486C20.4898 3.60486 13.4199 11.0019 13.4199 20.1266C13.4199 29.2513 20.4898 36.6483 29.2108 36.6483Z" stroke="#1A2935" stroke-width="0.5" stroke-miterlimit="10"/>
<path d="M41.1826 11.8955C41.1714 11.7044 41.0905 11.524 40.9551 11.3886C40.8197 11.2532 40.6394 11.1723 40.4482 11.1611C35.3935 10.8682 31.335 12.4053 29.5908 15.2842C28.4385 17.1875 28.4404 19.499 29.5752 21.7041C28.9293 22.473 28.4572 23.3725 28.1914 24.3408L26.6025 22.7461C27.3662 21.1514 27.3369 19.4893 26.5049 18.1084C25.2158 15.9805 22.2402 14.8398 18.5459 15.0566C18.3548 15.0678 18.1744 15.1488 18.039 15.2841C17.9036 15.4195 17.8227 15.5999 17.8115 15.791C17.5937 19.4854 18.7353 22.4609 20.8633 23.75C21.5655 24.179 22.3724 24.4061 23.1953 24.4062C23.994 24.3964 24.7803 24.2072 25.4961 23.8525L27.9375 26.2939V29.0938C27.9375 29.301 28.0198 29.4997 28.1663 29.6462C28.3128 29.7927 28.5115 29.875 28.7187 29.875C28.9259 29.875 29.1247 29.7927 29.2712 29.6462C29.4177 29.4997 29.5 29.301 29.5 29.0938V26.2139C29.4965 24.971 29.9195 23.7645 30.6982 22.7959C31.7031 23.321 32.8175 23.6021 33.9512 23.6162C35.0472 23.6197 36.123 23.3203 37.0596 22.751C39.9385 21.0088 41.4795 16.9502 41.1826 11.8955ZM21.6689 22.4141C20.1709 21.5068 19.3232 19.3594 19.3437 16.5937C22.1094 16.5703 24.2568 17.4209 25.1641 18.9189C25.6377 19.7002 25.7148 20.6113 25.4043 21.5498L23.0205 19.166C22.8728 19.0257 22.6761 18.9486 22.4724 18.9512C22.2687 18.9538 22.074 19.0359 21.93 19.18C21.7859 19.324 21.7038 19.5187 21.7012 19.7224C21.6986 19.9261 21.7757 20.1228 21.916 20.2705L24.2998 22.6543C23.3613 22.9648 22.4512 22.8877 21.6689 22.4141ZM36.25 21.416C34.9414 22.208 33.4033 22.2686 31.8408 21.6113L37.084 16.3672C37.2243 16.2195 37.3014 16.0228 37.2988 15.8191C37.2962 15.6154 37.2141 15.4207 37.07 15.2767C36.926 15.1326 36.7313 15.0505 36.5276 15.0479C36.3239 15.0453 36.1272 15.1224 35.9795 15.2627L30.7353 20.5C30.0752 18.9375 30.1348 17.3984 30.9307 16.0908C32.292 13.8447 35.5205 12.5928 39.6543 12.6895C39.748 16.8223 38.498 20.0547 36.25 21.416Z" fill="#1A2935"/>
</g>
<defs>
<filter id="filter0_d_2026_264" x="-3" y="0" width="56.9998" height="55.8895" filterUnits="userSpaceOnUse" color-interpolation-filters="sRGB">
<feFlood flood-opacity="0" result="BackgroundImageFix"/>
<feColorMatrix in="SourceAlpha" type="matrix" values="0 0 0 0 0 0 0 0 0 0 0 0 0 0 0 0 0 0 127 0" result="hardAlpha"/>
<feOffset dx="-2" dy="8"/>
<feGaussianBlur stdDeviation="4"/>
<feComposite in2="hardAlpha" operator="out"/>
<feColorMatrix type="matrix" values="0 0 0 0 0.0430556 0 0 0 0 0.333333 0 0 0 0 0.160849 0 0 0 0.1 0"/>
<feBlend mode="normal" in2="BackgroundImageFix" result="effect1_dropShadow_2026_264"/>
<feBlend mode="normal" in="SourceGraphic" in2="effect1_dropShadow_2026_264" result="shape"/>
</filter>
</defs>
</svg>
