<svg width="50" height="50" viewBox="0 0 50 50" fill="none" xmlns="http://www.w3.org/2000/svg">
<path fill-rule="evenodd" clip-rule="evenodd" d="M10.4422 0.787258C8.25755 0.18395 5.77946 0.542746 3.85539 1.75257C1.92062 2.96912 0.433039 5.05316 0.0423546 7.32651C-0.322662 9.45051 1.79286 11.2362 1.85525 13.3912C1.93078 16.0003 -0.658106 18.5643 0.436079 20.9272C1.48988 23.2029 4.47624 23.8543 6.91438 24.3165C9.20762 24.7513 11.5808 24.3945 13.7176 23.4453C15.6935 22.5677 16.9675 20.7592 18.4654 19.1858C20.0565 17.5146 22.3517 16.2196 22.7705 13.9364C23.1917 11.6409 22.1238 9.19913 20.6224 7.42818C19.2673 5.82975 16.8144 5.98904 15.0659 4.84843C13.3155 3.70658 12.4506 1.3419 10.4422 0.787258Z" fill="#6F97B9"/>
<path d="M28.6403 47.757C39.8859 47.757 49.0023 38.2187 49.0023 26.4527C49.0023 14.6866 39.8859 5.14832 28.6403 5.14832C17.3947 5.14832 8.27832 14.6866 8.27832 26.4527C8.27832 38.2187 17.3947 47.757 28.6403 47.757Z" stroke="#B4E5C8" stroke-width="0.5" stroke-miterlimit="10"/>
<path fill-rule="evenodd" clip-rule="evenodd" d="M24.2608 38.079L26.2518 36.136C26.4817 35.9124 26.7702 35.7667 27.0799 35.7179L34.5533 34.5501C34.7618 34.5177 34.9543 34.4112 35.0983 34.2492L38.5388 30.3695C38.6301 30.2669 38.6994 30.1448 38.7419 30.0116C38.7844 29.8783 38.7991 29.737 38.785 29.5973C38.771 29.4575 38.7285 29.3226 38.6605 29.2016C38.5924 29.0807 38.5004 28.9765 38.3907 28.8963L38.3848 28.892C38.2067 28.7613 37.9908 28.7002 37.7744 28.7191C37.558 28.7379 37.3546 28.8357 37.1994 28.9954L34.285 32.0002C34.0083 32.2848 33.6409 32.4507 33.2542 32.4657L30.5891 32.5698C30.4974 32.5872 30.4045 32.5959 30.3113 32.596L28.1918 32.5953C28.1117 32.5916 28.0362 32.5555 27.9808 32.4945C27.9254 32.4336 27.8946 32.3525 27.8947 32.2682C27.8947 32.1839 27.9257 32.1029 27.9812 32.0421C28.0367 31.9812 28.1123 31.9453 28.1924 31.9417H30.3125C30.7982 31.9417 31.2028 31.5491 31.2419 31.0393L31.2905 30.395C31.3006 30.2643 31.2856 30.1328 31.2465 30.0083C31.2073 29.8838 31.1449 29.7689 31.0627 29.6703C30.9806 29.5716 30.8804 29.4914 30.7683 29.4342C30.6561 29.3771 30.5341 29.3442 30.4096 29.3375L23.762 28.9711C23.631 28.9637 23.5 28.9855 23.3776 29.0351C23.2552 29.0847 23.1442 29.161 23.0518 29.259L19.4158 33.1069L24.2608 38.079Z" fill="#B4E5C8"/>
<path fill-rule="evenodd" clip-rule="evenodd" d="M35.754 29.571L36.6402 27.7795C36.7017 27.6557 36.7374 27.5194 36.7447 27.3798C36.7521 27.2403 36.7309 27.1007 36.6827 26.9705C36.6345 26.8403 36.5604 26.7224 36.4653 26.6248C36.3702 26.5273 36.2563 26.4522 36.1313 26.4048L36.1124 26.3974C35.9081 26.3195 35.6844 26.3192 35.48 26.3965C35.2756 26.4738 35.1032 26.6237 34.9928 26.8205L32.923 30.5033C32.7214 30.8627 32.3967 31.1273 32.0155 31.2429L31.8336 31.2978C31.7911 31.5112 31.7085 31.7135 31.5908 31.8929C32.1654 31.8617 32.8069 31.8287 33.2328 31.8125C33.4647 31.8033 33.685 31.7036 33.8507 31.5327L35.754 29.571ZM24.1363 40.2331L21.2236 43.375L14.2917 36.2611L17.205 33.1198C17.3776 32.9338 17.6134 32.8274 17.8605 32.8241C18.1077 32.8208 18.346 32.9209 18.523 33.1024L24.1209 38.8466C24.4888 39.2248 24.4965 39.8455 24.1363 40.2331ZM19.2759 35.3725C18.9766 35.0578 18.5707 34.8811 18.1476 34.8813C17.7244 34.8814 17.3187 35.0583 17.0195 35.3731C16.7204 35.688 16.5524 36.1149 16.5525 36.5601C16.5526 37.0052 16.7208 37.432 17.0201 37.7467C17.1683 37.9025 17.3442 38.0261 17.5378 38.1104C17.7314 38.1947 17.9389 38.238 18.1484 38.238C18.358 38.2379 18.5654 38.1944 18.759 38.11C18.9525 38.0257 19.1284 37.902 19.2765 37.7461C19.4246 37.5902 19.5421 37.4051 19.6222 37.2015C19.7023 36.9978 19.7435 36.7796 19.7435 36.5592C19.7434 36.3388 19.7021 36.1205 19.6219 35.9169C19.5417 35.7133 19.4241 35.5283 19.2759 35.3725ZM18.8369 35.8355C18.93 35.9301 19.0043 36.0433 19.0553 36.1685C19.1064 36.2936 19.1332 36.4282 19.1343 36.5643C19.1354 36.7005 19.1106 36.8355 19.0615 36.9615C19.0124 37.0875 18.9399 37.202 18.8483 37.2982C18.7567 37.3944 18.6478 37.4704 18.5279 37.5219C18.4081 37.5733 18.2797 37.5991 18.1502 37.5978C18.0208 37.5964 17.8929 37.5679 17.774 37.514C17.6551 37.4601 17.5477 37.3818 17.4579 37.2837C17.2807 37.0903 17.1828 36.8313 17.1852 36.5627C17.1876 36.2941 17.2902 36.0372 17.4708 35.8473C17.6515 35.6574 17.8958 35.5497 18.1512 35.5474C18.4066 35.5451 18.6526 35.6483 18.8364 35.8349L18.8369 35.8355ZM28.7699 16.5018C28.7977 16.5499 28.8369 16.5896 28.8836 16.6172C28.9303 16.6448 28.9829 16.6593 29.0364 16.6593C29.09 16.6593 29.1426 16.6448 29.1893 16.6172C29.236 16.5896 29.2751 16.5499 29.303 16.5018C30.4747 14.4516 32.8134 14.433 33.9851 15.458C34.4478 15.8631 34.709 16.5909 34.802 17.4396C34.9489 18.7894 34.6539 20.4457 33.9176 21.7344L33.9129 21.7425C33.0569 23.3477 30.89 25.624 29.0376 26.7575C27.1835 25.6234 25.0172 23.3477 24.1612 21.7425L24.1565 21.7344C23.4201 20.4457 23.1251 18.7894 23.272 17.439C23.3651 16.5915 23.6263 15.8637 24.0895 15.458C25.2595 14.4336 27.5976 14.4516 28.7693 16.5018H28.7699Z" fill="#B4E5C8"/>
</svg>
