<svg width="46" height="46" viewBox="0 0 46 46" fill="none" xmlns="http://www.w3.org/2000/svg">
<path fill-rule="evenodd" clip-rule="evenodd" d="M9.37631 0.807776C7.41465 0.161375 5.1895 0.545799 3.46182 1.84204C1.72453 3.14549 0.38879 5.37838 0.0379829 7.81412C-0.289776 10.0898 1.60981 12.0031 1.66583 14.312C1.73365 17.1075 -0.590981 19.8546 0.39152 22.3863C1.33776 24.8245 4.0193 25.5224 6.20857 26.0177C8.26774 26.4836 10.3987 26.1012 12.3174 25.0843C14.0916 24.144 15.2356 22.2063 16.5806 20.5205C18.0093 18.7299 20.0702 17.3425 20.4463 14.8962C20.8244 12.4367 19.8655 9.82049 18.5174 7.92305C17.3006 6.21045 15.0981 6.38111 13.528 5.15903C11.9563 3.93562 11.1797 1.40204 9.37631 0.807776Z" fill="#6F97B9"/>
<path d="M24.0696 45.5C35.6291 45.5 45 35.9061 45 24.0714C45 12.2367 35.6291 2.64282 24.0696 2.64282C12.51 2.64282 3.13916 12.2367 3.13916 24.0714C3.13916 35.9061 12.51 45.5 24.0696 45.5Z" stroke="#B4E5C8" stroke-width="0.5" stroke-miterlimit="10"/>
<path d="M32.9987 25.3154C33.8105 25.3571 35 24.6342 35 23.7443C35 22.6926 33.9729 21.8386 32.7031 21.8386H27.7599C26.8316 21.8056 25.831 21.6745 25.3201 21.2204C23.9479 19.9987 26.1998 18.4944 26.6075 17.5693C27.0134 16.6443 27.9267 14.8777 27.0884 12.8951C26.2078 10.8113 23.5279 11.1644 23.107 13.273C22.875 14.4405 20.6151 17.1145 18.3085 19.3659C16.8155 20.8241 15.1212 21.7624 13.285 23.2858C10.0334 25.9847 10.036 32.312 14.6978 34.2463C16.3611 34.937 19.8624 35.3626 22.5909 35.4468C26.3596 35.5632 26.9641 35.4724 28.5012 35.331L29.943 35.1581C31.0345 35.0102 31.8667 34.2309 31.8667 33.2839C31.8667 32.947 31.752 32.635 31.5675 32.3596C32.7411 32.2754 33.6659 31.4675 33.6659 30.4715C33.6659 29.8965 33.4567 29.3816 32.5161 29.0374C33.7223 28.9788 34.6806 28.1577 34.6806 27.1434C34.6805 26.2682 33.9666 25.5388 32.9987 25.3154Z" fill="#B4E5C8"/>
</svg>
