<svg width="90" height="95" viewBox="0 0 90 95" fill="none" xmlns="http://www.w3.org/2000/svg">
<path d="M37.8521 51.7329L52.1218 42.1779M52.1218 42.1779L41.7061 39.862M52.1218 42.1779L49.6948 53.0933" stroke="white" stroke-width="1.09615" stroke-linecap="round" stroke-linejoin="round"/>
<path opacity="0.5" fill-rule="evenodd" clip-rule="evenodd" d="M22.2053 23.1286C20.7638 24.607 19.4485 26.2206 18.278 27.9513C15.7636 31.6691 13.9661 35.8541 12.9883 40.2674C12.0104 44.6807 11.8714 49.2359 12.579 53.6729C13.2866 58.1098 14.8271 62.3417 17.1125 66.1268C19.3978 69.9119 22.3833 73.1762 25.8985 75.7332C29.4137 78.2903 33.3897 80.09 37.5996 81.0296C41.8094 81.9693 46.1707 82.0305 50.4343 81.2097C52.419 80.8276 54.3645 80.2579 56.2473 79.5102L55.7184 78.6343C53.9531 79.3217 52.1319 79.8483 50.2752 80.2058C46.1386 81.0021 41.9071 80.9428 37.8224 80.031C33.7377 79.1193 29.8797 77.3731 26.4689 74.8919C23.058 72.4108 20.161 69.2433 17.9434 65.5704C15.7258 61.8976 14.231 57.7912 13.5444 53.4859C12.8577 49.1806 12.9927 44.7607 13.9415 40.4785C14.8903 36.1964 16.6343 32.1359 19.0738 28.5288C20.1688 26.9099 21.3942 25.3965 22.7342 24.0046L22.2053 23.1286ZM67.3573 70.8409C68.6973 69.449 69.9227 67.9356 71.0176 66.3167C73.4572 62.7096 75.2012 58.6491 76.15 54.3669C77.0988 50.0848 77.2338 45.6649 76.5471 41.3596C75.8605 37.0543 74.3657 32.9479 72.1481 29.275C69.9305 25.6022 67.0335 22.4347 63.6226 19.9536C60.2118 17.4724 56.3538 15.7262 52.2691 14.8144C48.1844 13.9027 43.9529 13.8434 39.8163 14.6397C37.9596 14.9971 36.1384 15.5238 34.3731 16.2112L33.8442 15.3353C35.727 14.5876 37.6725 14.0179 39.6572 13.6358C43.9208 12.815 48.2821 12.8762 52.4919 13.8158C56.7018 14.7555 60.6778 16.5552 64.193 19.1122C67.7082 21.6693 70.6937 24.9335 72.979 28.7187C75.2644 32.5038 76.8049 36.7356 77.5125 41.1726C78.2201 45.6096 78.0811 50.1647 77.1032 54.5781C76.1254 58.9914 74.3279 63.1764 71.8135 66.8942C70.643 68.6249 69.3277 70.2385 67.8862 71.7168L67.3573 70.8409Z" fill="white"/>
</svg>
