<svg width="24" height="25" viewBox="0 0 24 25" fill="none" xmlns="http://www.w3.org/2000/svg">
<path fill-rule="evenodd" clip-rule="evenodd" d="M22 20.5C22 21.6046 21.1046 22.5 20 22.5H16C14.8954 22.5 14 21.6046 14 20.5V16.5C14 15.3954 14.8954 14.5 16 14.5H20C21.1046 14.5 22 15.3954 22 16.5V20.5ZM10 20.5C10 21.6046 9.10457 22.5 8 22.5H4C2.89543 22.5 2 21.6046 2 20.5V16.5C2 15.3954 2.89543 14.5 4 14.5H8C9.10457 14.5 10 15.3954 10 16.5V20.5ZM20 10.5C21.1046 10.5 22 9.60457 22 8.5V4.5C22 3.39543 21.1046 2.5 20 2.5H16C14.8954 2.5 14 3.39543 14 4.5V8.5C14 9.60457 14.8954 10.5 16 10.5H20Z" fill="white"/>
</svg>
