<svg width="24" height="25" viewBox="0 0 24 25" fill="none" xmlns="http://www.w3.org/2000/svg">
<path fill-rule="evenodd" clip-rule="evenodd" d="M2 4.5C2 3.39543 2.89543 2.5 4 2.5H8C9.10457 2.5 10 3.39543 10 4.5V8.5C10 9.60457 9.10457 10.5 8 10.5H4C2.89543 10.5 2 9.60457 2 8.5V4.5ZM14 4.5C14 3.39543 14.8954 2.5 16 2.5H20C21.1046 2.5 22 3.39543 22 4.5V8.5C22 9.60457 21.1046 10.5 20 10.5H16C14.8954 10.5 14 9.60457 14 8.5V4.5ZM4 14.5C2.89543 14.5 2 15.3954 2 16.5V20.5C2 21.6046 2.89543 22.5 4 22.5H8C9.10457 22.5 10 21.6046 10 20.5V16.5C10 15.3954 9.10457 14.5 8 14.5H4Z" fill="#1A2935"/>
</svg>
