<svg width="24" height="25" viewBox="0 0 24 25" fill="none" xmlns="http://www.w3.org/2000/svg">
<path fill-rule="evenodd" clip-rule="evenodd" d="M2 20.5C2 21.6046 2.89543 22.5 4 22.5H8C9.10457 22.5 10 21.6046 10 20.5V16.5C10 15.3954 9.10457 14.5 8 14.5H4C2.89543 14.5 2 15.3954 2 16.5V20.5ZM14 20.5C14 21.6046 14.8954 22.5 16 22.5H20C21.1046 22.5 22 21.6046 22 20.5V16.5C22 15.3954 21.1046 14.5 20 14.5H16C14.8954 14.5 14 15.3954 14 16.5V20.5ZM4 10.5C2.89543 10.5 2 9.60457 2 8.5V4.5C2 3.39543 2.89543 2.5 4 2.5H8C9.10457 2.5 10 3.39543 10 4.5V8.5C10 9.60457 9.10457 10.5 8 10.5H4Z" fill="white"/>
</svg>
