<svg width="46" height="46" viewBox="0 0 46 46" fill="none" xmlns="http://www.w3.org/2000/svg">
<path fill-rule="evenodd" clip-rule="evenodd" d="M9.37631 0.807776C7.41465 0.161375 5.1895 0.545799 3.46182 1.84204C1.72453 3.14549 0.38879 5.37838 0.0379829 7.81412C-0.289776 10.0898 1.60981 12.0031 1.66583 14.312C1.73365 17.1075 -0.590981 19.8546 0.39152 22.3863C1.33776 24.8245 4.0193 25.5224 6.20857 26.0177C8.26774 26.4836 10.3987 26.1012 12.3174 25.0843C14.0916 24.144 15.2356 22.2063 16.5806 20.5205C18.0093 18.7299 20.0702 17.3425 20.4463 14.8962C20.8244 12.4367 19.8655 9.82049 18.5174 7.92305C17.3006 6.21045 15.0981 6.38111 13.528 5.15903C11.9563 3.93562 11.1797 1.40204 9.37631 0.807776Z" fill="#6F97B9"/>
<path d="M24.0696 45.5C35.6291 45.5 45 35.9061 45 24.0714C45 12.2367 35.6291 2.64282 24.0696 2.64282C12.51 2.64282 3.13916 12.2367 3.13916 24.0714C3.13916 35.9061 12.51 45.5 24.0696 45.5Z" stroke="#B4E5C8" stroke-width="0.5" stroke-miterlimit="10"/>
<path d="M25 14.5C18.3719 14.5 13 18.5266 13 23.5C13 27.0156 15.6953 30.0531 19.6141 31.5344L16.9984 38.5L24.5219 32.4813C24.6813 32.4859 24.8359 32.5 25 32.5C31.6281 32.5 37 28.4734 37 23.5C37 18.5266 31.6281 14.5 25 14.5ZM19 25.5016C17.8984 25.5016 16.9984 24.6062 16.9984 23.5C16.9984 22.3938 17.8938 21.4984 19 21.4984C20.1016 21.4984 21.0016 22.3938 21.0016 23.5C21.0016 24.6062 20.1016 25.5016 19 25.5016ZM25 25.5016C23.8984 25.5016 22.9984 24.6062 22.9984 23.5C22.9984 22.3938 23.8938 21.4984 25 21.4984C26.1016 21.4984 27.0016 22.3938 27.0016 23.5C27.0016 24.6062 26.1016 25.5016 25 25.5016ZM31 25.5016C29.8984 25.5016 28.9984 24.6062 28.9984 23.5C28.9984 22.3938 29.8937 21.4984 31 21.4984C32.1016 21.4984 33.0016 22.3938 33.0016 23.5C33.0016 24.6062 32.1016 25.5016 31 25.5016Z" fill="#B4E5C8"/>
</svg>
