<svg width="558" height="897" viewBox="0 0 558 897" fill="none" xmlns="http://www.w3.org/2000/svg">
<g opacity="0.8">
<path d="M179.231 791.872C179.231 791.872 328.324 715.773 300.969 632.87C275.322 555.144 169.161 597.75 115.1 533.644C41.6803 446.581 141.734 347.389 71.1786 258.048C28.6309 204.172 -71.3646 157.55 -71.3646 157.55" stroke="#1A2935"/>
<path opacity="0.5" d="M202.062 783.579C202.062 783.579 322.429 669.055 276.338 592.926C233.125 521.55 144.548 591.484 78.1781 541.049C-11.9603 472.554 56.889 347.437 -31.1387 275.923C-84.2228 232.797 -189.155 211.669 -189.155 211.669" stroke="#1A2935"/>
<path opacity="0.7" d="M-133.332 196.667C-133.332 196.667 27.0381 142.573 79.2887 215.003C128.277 282.91 23.8493 328.899 43.0184 407.683C69.0522 514.682 217.251 509.434 247.054 615.919C265.027 680.134 239.813 779.431 239.813 779.431" stroke="#1A2935"/>
</g>
</svg>
