<svg width="145" height="47" viewBox="0 0 145 47" fill="none" xmlns="http://www.w3.org/2000/svg">
<path d="M4.27603 10.081C6.63762 10.081 8.55207 8.25847 8.55207 6.01024C8.55207 3.76201 6.63762 1.93945 4.27603 1.93945C1.91445 1.93945 0 3.76201 0 6.01024C0 8.25847 1.91445 10.081 4.27603 10.081Z" fill="white"/>
<path d="M25.6553 20.2583C28.0169 20.2583 29.9313 18.4357 29.9313 16.1875C29.9313 13.9393 28.0169 12.1167 25.6553 12.1167C23.2937 12.1167 21.3793 13.9393 21.3793 16.1875C21.3793 18.4357 23.2937 20.2583 25.6553 20.2583Z" fill="white"/>
<path d="M4.27603 30.4348C6.63762 30.4348 8.55207 28.6122 8.55207 26.364C8.55207 24.1158 6.63762 22.2932 4.27603 22.2932C1.91445 22.2932 0 24.1158 0 26.364C0 28.6122 1.91445 30.4348 4.27603 30.4348Z" fill="white"/>
<path d="M4.27551 6.01025L25.6557 16.1872L4.27551 26.3642V6.01025Z" stroke="white" stroke-width="2"/>
<path d="M130.055 4.20249H124.955V0H130.055V4.20249ZM124.955 7.07598H130.055V25.646H124.955V7.07598Z" fill="white"/>
<path d="M103.521 7.07586H108.37V9.66201H108.478C109.124 8.58445 109.962 7.80621 110.992 7.32729C112.022 6.82443 113.075 6.573 114.153 6.573C115.518 6.573 116.631 6.76457 117.493 7.1477C118.379 7.50689 119.074 8.02172 119.576 8.6922C120.079 9.33874 120.426 10.1409 120.618 11.0988C120.834 12.0326 120.941 13.0743 120.941 14.2237V25.6458H115.841V15.1576C115.841 13.625 115.601 12.4876 115.122 11.7453C114.644 10.979 113.793 10.5959 112.572 10.5959C111.183 10.5959 110.178 11.0149 109.555 11.853C108.933 12.6672 108.621 14.0201 108.621 15.9119V25.6458H103.521V7.07586Z" fill="white"/>
<path d="M82.6748 10.4883H79.6217V7.07598H82.6748V5.63923C82.6748 3.98697 83.1896 2.63404 84.2193 1.58042C85.249 0.526807 86.8054 0 88.8887 0C89.3437 0 89.7987 0.0239464 90.2536 0.0718388C90.7086 0.0957843 91.1516 0.119729 91.5826 0.143675V3.95106C90.984 3.87922 90.3614 3.8433 89.7149 3.8433C89.0204 3.8433 88.5176 4.01092 88.2063 4.34616C87.9189 4.65746 87.7752 5.19624 87.7752 5.9625V7.07598H91.2953V10.4883H87.7752V25.646H82.6748V10.4883ZM94.3843 7.07598H99.4847V25.646H94.3843V7.07598ZM99.4847 4.20249H94.3843V0H99.4847V4.20249Z" fill="white"/>
<path d="M70.7136 10.4883H67.6605V7.07598H70.7136V5.63923C70.7136 3.98697 71.2284 2.63404 72.2581 1.58042C73.2878 0.526807 74.8443 0 76.9275 0C77.3825 0 77.8375 0.0239464 78.2925 0.0718388C78.7474 0.0957843 79.1904 0.119729 79.6214 0.143675V3.95106C79.0228 3.87922 78.4002 3.8433 77.7537 3.8433C77.0592 3.8433 76.5564 4.01092 76.2451 4.34616C75.9577 4.65746 75.8141 5.19624 75.8141 5.9625V7.07598H79.3341V10.4883H75.8141V25.646H70.7136V10.4883Z" fill="white"/>
<path d="M48.7598 12.7869C48.8316 11.5896 49.1309 10.5959 49.6577 9.80568C50.1845 9.01547 50.855 8.38091 51.6692 7.90199C52.4833 7.42308 53.3933 7.08783 54.399 6.89627C55.4287 6.68076 56.4583 6.573 57.488 6.573C58.4219 6.573 59.3677 6.64484 60.3256 6.78851C61.2834 6.90824 62.1574 7.15967 62.9476 7.5428C63.7379 7.92594 64.3844 8.46472 64.8873 9.15915C65.3901 9.82963 65.6415 10.7276 65.6415 11.853V21.5152C65.6415 22.3533 65.6894 23.1555 65.7852 23.9217C65.881 24.688 66.0486 25.2627 66.2881 25.6458H61.1158C61.02 25.3585 60.9362 25.0711 60.8644 24.7838C60.8165 24.4725 60.7805 24.1612 60.7566 23.8499C59.9424 24.688 58.9846 25.2747 57.8831 25.6099C56.7816 25.9451 55.6561 26.1128 54.5067 26.1128C53.6208 26.1128 52.7946 26.005 52.0284 25.7895C51.2621 25.574 50.5916 25.2387 50.0169 24.7838C49.4422 24.3288 48.9872 23.7541 48.652 23.0597C48.3407 22.3653 48.1851 21.5391 48.1851 20.5813C48.1851 19.5277 48.3647 18.6656 48.7238 17.9951C49.107 17.3007 49.5859 16.75 50.1606 16.3429C50.7592 15.9358 51.4297 15.6365 52.172 15.4449C52.9383 15.2294 53.7046 15.0618 54.4708 14.9421C55.2371 14.8223 55.9914 14.7265 56.7337 14.6547C57.476 14.5829 58.1345 14.4751 58.7092 14.3314C59.2839 14.1878 59.7389 13.9842 60.0741 13.7208C60.4094 13.4335 60.565 13.0264 60.5411 12.4996C60.5411 11.9488 60.4453 11.5178 60.2537 11.2065C60.0861 10.8713 59.8467 10.6198 59.5354 10.4522C59.248 10.2607 58.9008 10.1409 58.4937 10.093C58.1106 10.0212 57.6915 9.98527 57.2366 9.98527C56.2308 9.98527 55.4406 10.2008 54.8659 10.6318C54.2912 11.0628 53.956 11.7812 53.8602 12.7869H48.7598ZM60.5411 16.5584C60.3256 16.75 60.0502 16.9056 59.715 17.0253C59.4037 17.1211 59.0564 17.2049 58.6733 17.2768C58.3141 17.3486 57.931 17.4085 57.5239 17.4564C57.1168 17.5043 56.7098 17.5641 56.3027 17.636C55.9195 17.7078 55.5364 17.8036 55.1533 17.9233C54.7941 18.043 54.4708 18.2107 54.1835 18.4262C53.9201 18.6177 53.7046 18.8692 53.5369 19.1805C53.3693 19.4918 53.2855 19.8869 53.2855 20.3658C53.2855 20.8207 53.3693 21.2039 53.5369 21.5152C53.7046 21.8265 53.932 22.0779 54.2194 22.2695C54.5067 22.4371 54.842 22.5568 55.2251 22.6287C55.6083 22.7005 56.0034 22.7364 56.4104 22.7364C57.4162 22.7364 58.1944 22.5688 58.7452 22.2335C59.2959 21.8983 59.703 21.5032 59.9664 21.0482C60.2298 20.5693 60.3854 20.0904 60.4333 19.6115C60.5052 19.1326 60.5411 18.7494 60.5411 18.4621V16.5584Z" fill="white"/>
<path d="M140.654 42.6713H142.761C142.777 42.5915 142.785 42.5237 142.785 42.4678C142.785 42.2363 142.709 42.0408 142.558 41.8811C142.414 41.7135 142.19 41.6297 141.887 41.6297C141.568 41.6297 141.304 41.7215 141.097 41.9051C140.889 42.0807 140.742 42.3361 140.654 42.6713ZM142.354 44.6708H144.629C144.589 44.7746 144.521 44.9382 144.425 45.1617C144.33 45.3772 144.162 45.5967 143.922 45.8202C143.691 46.0357 143.368 46.2273 142.953 46.3949C142.538 46.5545 141.995 46.6344 141.324 46.6344C140.774 46.6344 140.303 46.5625 139.912 46.4188C139.52 46.2752 139.201 46.0796 138.954 45.8322C138.706 45.5847 138.523 45.2934 138.403 44.9582C138.291 44.6229 138.235 44.2677 138.235 43.8926C138.235 43.1822 138.355 42.5875 138.595 42.1086C138.842 41.6217 139.149 41.2306 139.516 40.9353C139.884 40.6399 140.287 40.4284 140.726 40.3007C141.165 40.173 141.576 40.1091 141.959 40.1091C142.302 40.1091 142.653 40.161 143.013 40.2648C143.372 40.3606 143.699 40.5202 143.994 40.7437C144.29 40.9592 144.529 41.2386 144.713 41.5818C144.904 41.925 145 42.3401 145 42.827C145 42.9946 144.992 43.1702 144.976 43.3538C144.968 43.5294 144.936 43.713 144.88 43.9045H140.45C140.45 44.0722 140.466 44.2278 140.498 44.3715C140.53 44.5152 140.582 44.6429 140.654 44.7546C140.734 44.8664 140.833 44.9542 140.953 45.018C141.081 45.0819 141.237 45.1138 141.42 45.1138C141.676 45.1138 141.879 45.0699 142.031 44.9821C142.182 44.8863 142.29 44.7826 142.354 44.6708Z" fill="white"/>
<path d="M132.58 46.4787L133.861 40.2648H136.16L135.957 41.2346H135.981C136.084 41.067 136.208 40.9153 136.352 40.7796C136.495 40.6439 136.647 40.5282 136.807 40.4324C136.974 40.3286 137.142 40.2488 137.31 40.1929C137.477 40.1371 137.637 40.1091 137.788 40.1091C137.988 40.1091 138.148 40.1171 138.267 40.1331C138.395 40.1411 138.515 40.165 138.627 40.2049L138.184 42.3002C138.04 42.2443 137.888 42.2044 137.729 42.1804C137.577 42.1565 137.425 42.1445 137.274 42.1445C137.018 42.1445 136.795 42.1765 136.603 42.2403C136.42 42.2962 136.256 42.392 136.112 42.5277C135.969 42.6633 135.845 42.8429 135.741 43.0664C135.645 43.2819 135.561 43.5533 135.49 43.8806L134.951 46.4787H132.58Z" fill="white"/>
<path d="M127.481 44.6948C127.481 44.9103 127.557 45.0539 127.709 45.1258C127.868 45.1976 128.044 45.2335 128.236 45.2335C128.635 45.2335 128.926 45.0978 129.11 44.8265C129.301 44.5551 129.433 44.1879 129.505 43.7249C129.313 43.8207 129.11 43.8886 128.894 43.9285C128.679 43.9604 128.463 43.9844 128.248 44.0003C128.048 44.0163 127.868 44.0801 127.709 44.1919C127.557 44.2957 127.481 44.4633 127.481 44.6948ZM128.164 42.1445H125.937C126.033 41.7295 126.18 41.3902 126.38 41.1268C126.579 40.8634 126.815 40.6559 127.086 40.5042C127.366 40.3526 127.677 40.2488 128.02 40.1929C128.363 40.1371 128.727 40.1091 129.11 40.1091C129.389 40.1091 129.704 40.1251 130.056 40.157C130.407 40.1889 130.734 40.2608 131.037 40.3725C131.349 40.4843 131.608 40.6519 131.816 40.8754C132.023 41.0909 132.127 41.3862 132.127 41.7614C132.127 41.921 132.107 42.1286 132.067 42.384C132.035 42.6314 131.991 42.8988 131.935 43.1862C131.879 43.4735 131.816 43.7649 131.744 44.0602C131.68 44.3555 131.62 44.6309 131.564 44.8863C131.508 45.1417 131.46 45.3652 131.42 45.5568C131.389 45.7404 131.373 45.8641 131.373 45.928C131.373 46.1435 131.404 46.3271 131.468 46.4787H129.146C129.114 46.3829 129.09 46.2871 129.074 46.1914C129.058 46.0876 129.054 45.9838 129.062 45.8801H129.038C128.934 46.0078 128.806 46.1195 128.655 46.2153C128.511 46.3031 128.351 46.3789 128.176 46.4428C128.008 46.5066 127.833 46.5545 127.649 46.5865C127.473 46.6184 127.298 46.6344 127.122 46.6344C126.859 46.6344 126.603 46.6024 126.356 46.5386C126.116 46.4827 125.901 46.3909 125.709 46.2632C125.526 46.1275 125.378 45.9559 125.266 45.7484C125.163 45.5329 125.111 45.2774 125.111 44.9821C125.111 44.575 125.183 44.2358 125.326 43.9644C125.478 43.693 125.685 43.4735 125.949 43.3059C126.212 43.1383 126.528 43.0146 126.895 42.9347C127.262 42.8549 127.669 42.799 128.116 42.7671C128.284 42.7591 128.467 42.7511 128.667 42.7432C128.874 42.7352 129.062 42.7152 129.229 42.6833C129.405 42.6434 129.553 42.5755 129.672 42.4798C129.792 42.384 129.852 42.2403 129.852 42.0487C129.852 41.8332 129.772 41.6896 129.613 41.6177C129.461 41.5459 129.293 41.51 129.11 41.51C128.87 41.51 128.667 41.5579 128.499 41.6536C128.339 41.7494 128.228 41.913 128.164 42.1445Z" fill="white"/>
<path d="M124.993 42.6234H122.719C122.727 42.3281 122.671 42.1246 122.551 42.0128C122.439 41.8931 122.24 41.8332 121.952 41.8332C121.697 41.8332 121.485 41.9091 121.318 42.0607C121.15 42.2044 121.014 42.38 120.911 42.5875C120.815 42.7871 120.747 42.9986 120.707 43.2221C120.667 43.4456 120.647 43.6292 120.647 43.7728C120.647 43.9165 120.655 44.0602 120.671 44.2039C120.695 44.3396 120.735 44.4593 120.791 44.563C120.855 44.6668 120.939 44.7506 121.042 44.8145C121.154 44.8783 121.294 44.9103 121.461 44.9103C121.621 44.9103 121.757 44.8783 121.868 44.8145C121.988 44.7506 122.088 44.6748 122.168 44.587C122.256 44.4912 122.323 44.3914 122.371 44.2877C122.427 44.1839 122.471 44.0881 122.503 44.0003H124.778C124.57 44.8943 124.187 45.5568 123.628 45.9878C123.07 46.4188 122.339 46.6344 121.437 46.6344C120.775 46.6344 120.236 46.5426 119.821 46.359C119.414 46.1674 119.095 45.932 118.863 45.6526C118.64 45.3732 118.484 45.0659 118.396 44.7307C118.317 44.3954 118.277 44.0841 118.277 43.7968C118.277 43.27 118.36 42.7831 118.528 42.3361C118.696 41.8811 118.939 41.49 119.258 41.1627C119.578 40.8275 119.969 40.5681 120.432 40.3845C120.903 40.2009 121.433 40.1091 122.024 40.1091C122.455 40.1091 122.854 40.161 123.221 40.2648C123.589 40.3606 123.904 40.5122 124.167 40.7197C124.431 40.9193 124.634 41.1787 124.778 41.498C124.93 41.8173 125.001 42.1924 124.993 42.6234Z" fill="white"/>
<path d="M109.759 44.9101C109.99 44.9101 110.182 44.8463 110.334 44.7186C110.493 44.5829 110.621 44.4192 110.717 44.2277C110.812 44.0281 110.88 43.8166 110.92 43.5931C110.968 43.3696 110.992 43.1661 110.992 42.9825C110.992 42.6313 110.924 42.3519 110.788 42.1444C110.661 41.9369 110.445 41.8331 110.142 41.8331C109.902 41.8331 109.703 41.9009 109.543 42.0366C109.384 42.1643 109.256 42.328 109.16 42.5275C109.064 42.7271 108.993 42.9506 108.945 43.198C108.905 43.4375 108.885 43.6689 108.885 43.8924C108.885 44.1718 108.953 44.4113 109.088 44.6108C109.224 44.8104 109.448 44.9101 109.759 44.9101ZM110.322 46.4786L110.465 45.7722H110.441C110.042 46.3469 109.491 46.6342 108.789 46.6342C108.286 46.6342 107.883 46.5384 107.58 46.3469C107.284 46.1553 107.057 45.9238 106.897 45.6525C106.738 45.3811 106.634 45.1057 106.586 44.8263C106.538 44.539 106.514 44.2995 106.514 44.1079C106.514 43.5173 106.586 42.9785 106.73 42.4916C106.881 41.9967 107.093 41.5737 107.364 41.2225C107.636 40.8713 107.959 40.5999 108.334 40.4083C108.717 40.2088 109.14 40.109 109.603 40.109C109.962 40.109 110.298 40.1729 110.609 40.3006C110.928 40.4283 111.192 40.6717 111.399 41.0309L112.046 37.9299H114.416L112.644 46.4786H110.322Z" fill="white"/>
<path d="M101.391 42.6713H103.498C103.514 42.5915 103.522 42.5237 103.522 42.4678C103.522 42.2363 103.446 42.0408 103.295 41.8811C103.151 41.7135 102.928 41.6297 102.624 41.6297C102.305 41.6297 102.042 41.7215 101.834 41.9051C101.627 42.0807 101.479 42.3361 101.391 42.6713ZM103.091 44.6708H105.366C105.326 44.7746 105.258 44.9382 105.163 45.1617C105.067 45.3772 104.899 45.5967 104.66 45.8202C104.428 46.0357 104.105 46.2273 103.69 46.3949C103.275 46.5545 102.732 46.6344 102.062 46.6344C101.511 46.6344 101.04 46.5625 100.649 46.4188C100.258 46.2752 99.9384 46.0796 99.691 45.8322C99.4435 45.5847 99.2599 45.2934 99.1402 44.9582C99.0285 44.6229 98.9726 44.2677 98.9726 43.8926C98.9726 43.1822 99.0923 42.5875 99.3318 42.1086C99.5792 41.6217 99.8865 41.2306 100.254 40.9353C100.621 40.6399 101.024 40.4284 101.463 40.3007C101.902 40.173 102.313 40.1091 102.696 40.1091C103.039 40.1091 103.391 40.161 103.75 40.2648C104.109 40.3606 104.436 40.5202 104.732 40.7437C105.027 40.9592 105.266 41.2386 105.45 41.5818C105.642 41.925 105.737 42.3401 105.737 42.827C105.737 42.9946 105.729 43.1702 105.713 43.3538C105.705 43.5294 105.673 43.713 105.618 43.9045H101.188C101.188 44.0722 101.204 44.2278 101.235 44.3715C101.267 44.5152 101.319 44.6429 101.391 44.7546C101.471 44.8664 101.571 44.9542 101.69 45.018C101.818 45.0819 101.974 45.1138 102.157 45.1138C102.413 45.1138 102.616 45.0699 102.768 44.9821C102.92 44.8863 103.027 44.7826 103.091 44.6708Z" fill="white"/>
<path d="M98.2029 38.385L97.7838 40.2648H99.0649L98.7297 41.7254H97.4725L97.0535 43.7249C97.0295 43.8287 97.0056 43.9325 96.9816 44.0362C96.9577 44.14 96.9457 44.2437 96.9457 44.3475C96.9457 44.4513 96.9776 44.5391 97.0415 44.6109C97.1133 44.6828 97.2411 44.7187 97.4246 44.7187C97.6162 44.7187 97.7679 44.7147 97.8796 44.7067C97.9993 44.6987 98.1071 44.6907 98.2029 44.6828L97.8437 46.3949C97.6362 46.4348 97.4246 46.4667 97.2091 46.4907C96.9936 46.5146 96.7781 46.5346 96.5626 46.5505C96.3072 46.5505 96.0517 46.5386 95.7963 46.5146C95.5409 46.4986 95.2975 46.4268 95.066 46.2991C94.8584 46.1873 94.6988 46.0237 94.5871 45.8082C94.4753 45.5847 94.4194 45.3572 94.4194 45.1258C94.4194 44.9581 94.4314 44.8105 94.4554 44.6828C94.4873 44.555 94.5192 44.4194 94.5511 44.2757L95.1019 41.7254H94.0483L94.3835 40.2648H95.4132L95.8322 38.385H98.2029Z" fill="white"/>
<path d="M93.7166 42.6234H91.4417C91.4497 42.3281 91.3938 42.1246 91.2741 42.0128C91.1623 41.8931 90.9628 41.8332 90.6754 41.8332C90.42 41.8332 90.2085 41.9091 90.0409 42.0607C89.8733 42.2044 89.7376 42.38 89.6338 42.5875C89.538 42.7871 89.4702 42.9986 89.4303 43.2221C89.3903 43.4456 89.3704 43.6292 89.3704 43.7728C89.3704 43.9165 89.3784 44.0602 89.3943 44.2039C89.4183 44.3396 89.4582 44.4593 89.5141 44.563C89.5779 44.6668 89.6617 44.7506 89.7655 44.8145C89.8772 44.8783 90.0169 44.9103 90.1845 44.9103C90.3442 44.9103 90.4799 44.8783 90.5916 44.8145C90.7114 44.7506 90.8111 44.6748 90.8909 44.587C90.9788 44.4912 91.0466 44.3914 91.0945 44.2877C91.1504 44.1839 91.1943 44.0881 91.2262 44.0003H93.501C93.2935 44.8943 92.9104 45.5568 92.3516 45.9878C91.7929 46.4188 91.0626 46.6344 90.1606 46.6344C89.4981 46.6344 88.9593 46.5426 88.5443 46.359C88.1372 46.1674 87.8179 45.932 87.5864 45.6526C87.3629 45.3732 87.2073 45.0659 87.1195 44.7307C87.0397 44.3954 86.9998 44.0841 86.9998 43.7968C86.9998 43.27 87.0836 42.7831 87.2512 42.3361C87.4188 41.8811 87.6623 41.49 87.9815 41.1627C88.3008 40.8275 88.6919 40.5681 89.1549 40.3845C89.6258 40.2009 90.1566 40.1091 90.7473 40.1091C91.1783 40.1091 91.5774 40.161 91.9446 40.2648C92.3117 40.3606 92.627 40.5122 92.8904 40.7197C93.1538 40.9193 93.3574 41.1787 93.501 41.498C93.6527 41.8173 93.7245 42.1924 93.7166 42.6234Z" fill="white"/>
<path d="M81.8768 42.6713H83.984C84 42.5915 84.008 42.5237 84.008 42.4678C84.008 42.2363 83.9321 42.0408 83.7805 41.8811C83.6368 41.7135 83.4133 41.6297 83.11 41.6297C82.7907 41.6297 82.5273 41.7215 82.3198 41.9051C82.1122 42.0807 81.9646 42.3361 81.8768 42.6713ZM83.5769 44.6708H85.8518C85.8119 44.7746 85.744 44.9382 85.6482 45.1617C85.5525 45.3772 85.3848 45.5967 85.1454 45.8202C84.9139 46.0357 84.5906 46.2273 84.1756 46.3949C83.7605 46.5545 83.2177 46.6344 82.5473 46.6344C81.9965 46.6344 81.5256 46.5625 81.1345 46.4188C80.7433 46.2752 80.4241 46.0796 80.1766 45.8322C79.9292 45.5847 79.7456 45.2934 79.6259 44.9582C79.5141 44.6229 79.4583 44.2677 79.4583 43.8926C79.4583 43.1822 79.578 42.5875 79.8174 42.1086C80.0649 41.6217 80.3722 41.2306 80.7394 40.9353C81.1065 40.6399 81.5096 40.4284 81.9486 40.3007C82.3876 40.173 82.7987 40.1091 83.1818 40.1091C83.525 40.1091 83.8763 40.161 84.2354 40.2648C84.5946 40.3606 84.9219 40.5202 85.2172 40.7437C85.5125 40.9592 85.752 41.2386 85.9356 41.5818C86.1272 41.925 86.2229 42.3401 86.2229 42.827C86.2229 42.9946 86.215 43.1702 86.199 43.3538C86.191 43.5294 86.1591 43.713 86.1032 43.9045H81.6732C81.6732 44.0722 81.6892 44.2278 81.7211 44.3715C81.7531 44.5152 81.8049 44.6429 81.8768 44.7546C81.9566 44.8664 82.0564 44.9542 82.1761 45.018C82.3038 45.0819 82.4595 45.1138 82.643 45.1138C82.8985 45.1138 83.102 45.0699 83.2537 44.9821C83.4053 44.8863 83.5131 44.7826 83.5769 44.6708Z" fill="white"/>
<path d="M71.3594 46.4787L72.6524 40.2648H74.9393L74.7597 41.055H74.7836C75.0151 40.7756 75.2985 40.5481 75.6337 40.3725C75.9689 40.1969 76.3281 40.1091 76.7113 40.1091C76.9826 40.1091 77.2381 40.1411 77.4775 40.2049C77.725 40.2608 77.9405 40.3566 78.1241 40.4923C78.3156 40.62 78.4633 40.7916 78.5671 41.0071C78.6788 41.2226 78.7347 41.482 78.7347 41.7853C78.7347 41.921 78.7187 42.0966 78.6868 42.3121C78.6549 42.5197 78.615 42.7392 78.5671 42.9707L77.8128 46.4787H75.4421L76.0528 43.6292C76.0927 43.4456 76.1326 43.262 76.1725 43.0784C76.2204 42.8868 76.2443 42.7272 76.2443 42.5995C76.2443 42.3999 76.1805 42.2523 76.0528 42.1565C75.925 42.0527 75.7654 42.0008 75.5738 42.0008C75.3823 42.0008 75.2226 42.0328 75.0949 42.0966C74.9672 42.1605 74.8595 42.2483 74.7717 42.36C74.6838 42.4638 74.612 42.5875 74.5561 42.7312C74.5003 42.8749 74.4564 43.0265 74.4244 43.1862L73.73 46.4787H71.3594Z" fill="white"/>
<path d="M63.5957 46.4787L64.8888 40.2648H67.1756L66.996 41.055H67.02C67.2514 40.7756 67.5348 40.5481 67.87 40.3725C68.2053 40.1969 68.5645 40.1091 68.9476 40.1091C69.219 40.1091 69.4744 40.1411 69.7139 40.2049C69.9613 40.2608 70.1768 40.3566 70.3604 40.4923C70.552 40.62 70.6996 40.7916 70.8034 41.0071C70.9151 41.2226 70.971 41.482 70.971 41.7853C70.971 41.921 70.955 42.0966 70.9231 42.3121C70.8912 42.5197 70.8513 42.7392 70.8034 42.9707L70.0491 46.4787H67.6785L68.2891 43.6292C68.329 43.4456 68.3689 43.262 68.4088 43.0784C68.4567 42.8868 68.4806 42.7272 68.4806 42.5995C68.4806 42.3999 68.4168 42.2523 68.2891 42.1565C68.1614 42.0527 68.0017 42.0008 67.8102 42.0008C67.6186 42.0008 67.459 42.0328 67.3312 42.0966C67.2035 42.1605 67.0958 42.2483 67.008 42.36C66.9202 42.4638 66.8483 42.5875 66.7925 42.7312C66.7366 42.8749 66.6927 43.0265 66.6608 43.1862L65.9663 46.4787H63.5957Z" fill="white"/>
<path d="M58.76 43.9045C58.76 44.0323 58.772 44.156 58.796 44.2757C58.8199 44.3954 58.8638 44.5032 58.9277 44.599C58.9915 44.6948 59.0753 44.7706 59.1791 44.8265C59.2908 44.8823 59.4305 44.9103 59.5981 44.9103C59.8296 44.9103 60.0252 44.8384 60.1848 44.6948C60.3524 44.5431 60.4841 44.3635 60.5799 44.156C60.6837 43.9484 60.7555 43.7369 60.7954 43.5214C60.8433 43.3059 60.8673 43.1303 60.8673 42.9946C60.8673 42.6194 60.8074 42.3321 60.6877 42.1326C60.5759 41.933 60.3604 41.8332 60.0411 41.8332C59.8017 41.8332 59.6021 41.913 59.4425 42.0727C59.2829 42.2243 59.1512 42.4119 59.0474 42.6354C58.9436 42.8509 58.8678 43.0784 58.8199 43.3179C58.78 43.5493 58.76 43.7449 58.76 43.9045ZM56.3894 43.7249C56.3894 43.2301 56.4692 42.7631 56.6289 42.3241C56.7885 41.8851 57.028 41.502 57.3472 41.1747C57.6745 40.8475 58.0736 40.588 58.5445 40.3965C59.0234 40.2049 59.5822 40.1091 60.2207 40.1091C60.6757 40.1091 61.0868 40.165 61.4539 40.2768C61.8291 40.3805 62.1484 40.5441 62.4118 40.7676C62.6752 40.9832 62.8787 41.2625 63.0224 41.6057C63.1661 41.949 63.2379 42.356 63.2379 42.827C63.2379 43.2261 63.174 43.6491 63.0463 44.0961C62.9266 44.5431 62.7231 44.9542 62.4357 45.3293C62.1484 45.7045 61.7652 46.0158 61.2863 46.2632C60.8074 46.5106 60.2088 46.6344 59.4904 46.6344C59.0594 46.6344 58.6563 46.5825 58.2811 46.4787C57.906 46.367 57.5787 46.1954 57.2993 45.9639C57.02 45.7324 56.7965 45.4331 56.6289 45.0659C56.4692 44.6908 56.3894 44.2438 56.3894 43.7249Z" fill="white"/>
<path d="M56.0089 42.6234H53.7341C53.742 42.3281 53.6862 42.1246 53.5664 42.0128C53.4547 41.8931 53.2551 41.8332 52.9678 41.8332C52.7124 41.8332 52.5009 41.9091 52.3332 42.0607C52.1656 42.2044 52.0299 42.38 51.9262 42.5875C51.8304 42.7871 51.7625 42.9986 51.7226 43.2221C51.6827 43.4456 51.6627 43.6292 51.6627 43.7728C51.6627 43.9165 51.6707 44.0602 51.6867 44.2039C51.7106 44.3396 51.7505 44.4593 51.8064 44.563C51.8703 44.6668 51.9541 44.7506 52.0579 44.8145C52.1696 44.8783 52.3093 44.9103 52.4769 44.9103C52.6365 44.9103 52.7722 44.8783 52.884 44.8145C53.0037 44.7506 53.1035 44.6748 53.1833 44.587C53.2711 44.4912 53.339 44.3914 53.3868 44.2877C53.4427 44.1839 53.4866 44.0881 53.5185 44.0003H55.7934C55.5859 44.8943 55.2027 45.5568 54.644 45.9878C54.0853 46.4188 53.3549 46.6344 52.453 46.6344C51.7905 46.6344 51.2517 46.5426 50.8366 46.359C50.4295 46.1674 50.1103 45.932 49.8788 45.6526C49.6553 45.3732 49.4996 45.0659 49.4118 44.7307C49.332 44.3954 49.2921 44.0841 49.2921 43.7968C49.2921 43.27 49.3759 42.7831 49.5435 42.3361C49.7112 41.8811 49.9546 41.49 50.2739 41.1627C50.5932 40.8275 50.9843 40.5681 51.4472 40.3845C51.9182 40.2009 52.449 40.1091 53.0396 40.1091C53.4707 40.1091 53.8698 40.161 54.2369 40.2648C54.6041 40.3606 54.9194 40.5122 55.1828 40.7197C55.4462 40.9193 55.6497 41.1787 55.7934 41.498C55.9451 41.8173 56.0169 42.1924 56.0089 42.6234Z" fill="white"/>
</svg>
