<svg width="28" height="29" viewBox="0 0 28 29" fill="none" xmlns="http://www.w3.org/2000/svg">
<path d="M13.0489 3.42705C13.3483 2.50574 14.6517 2.50574 14.9511 3.42705L16.9187 9.48278C17.0526 9.8948 17.4365 10.1738 17.8697 10.1738H24.2371C25.2058 10.1738 25.6086 11.4134 24.8249 11.9828L19.6736 15.7254C19.3231 15.9801 19.1764 16.4314 19.3103 16.8435L21.2779 22.8992C21.5773 23.8205 20.5228 24.5866 19.7391 24.0172L14.5878 20.2746C14.2373 20.0199 13.7627 20.0199 13.4122 20.2746L8.2609 24.0172C7.47719 24.5866 6.42271 23.8205 6.72206 22.8992L8.68969 16.8435C8.82356 16.4314 8.6769 15.9801 8.32642 15.7254L3.17511 11.9828C2.39139 11.4134 2.79417 10.1738 3.76289 10.1738H10.1303C10.5635 10.1738 10.9474 9.8948 11.0813 9.48278L13.0489 3.42705Z" fill="#FAD378"/>
</svg>
