<svg width="625" height="661" viewBox="0 0 625 661" fill="none" xmlns="http://www.w3.org/2000/svg">
<g opacity="0.4">
<path fill-rule="evenodd" clip-rule="evenodd" d="M297.984 465.794C252.397 453.194 200.755 454.624 169.829 418.832C136.613 380.39 120.708 325.452 134.453 276.533C147.36 230.596 201.755 216.772 235.951 183.501C283.257 137.476 304.131 39.3536 369.58 47.7742C434.376 56.1108 421.235 160.928 461.352 212.501C505.787 269.625 611.631 285.777 611.016 358.157C610.406 429.93 526.779 475.399 458.918 498.733C405.084 517.244 352.85 480.958 297.984 465.794Z" stroke="#1A2935"/>
<path fill-rule="evenodd" clip-rule="evenodd" d="M311.849 611.315C246.708 603.52 175.762 574.744 148.925 514.827C123.787 458.704 178.349 402.578 191.433 342.471C203.365 287.653 180.919 222.447 221.087 183.311C264.251 141.256 332.684 133.718 391.238 147.798C446.668 161.127 478.152 212.278 516.626 254.378C564.636 306.913 646.991 348.378 639.236 419.169C631.444 490.302 545.383 518.69 483.705 554.89C429.637 586.623 374.071 618.761 311.849 611.315Z" stroke="#1A2935" stroke-opacity="0.5"/>
<path fill-rule="evenodd" clip-rule="evenodd" d="M230.742 531.034C161.142 538.201 73.4171 539.464 35.1548 480.884C-2.98116 422.498 55.3571 350.906 68.333 282.385C80.8717 216.174 59.675 138.328 108.768 92.1644C161.205 42.8564 241.719 40.5792 312.683 52.6167C383.771 64.6753 450.814 98.4522 492.533 157.262C534.299 216.138 561.983 296.131 532.014 361.803C504.387 422.343 418.138 414.831 360.12 447.421C313.58 473.564 283.84 525.567 230.742 531.034Z" stroke="#1A2935" stroke-opacity="0.3"/>
</g>
</svg>
