<svg width="618" height="579" viewBox="0 0 618 579" fill="none" xmlns="http://www.w3.org/2000/svg">
<g clip-path="url(#clip0_2244_1555)">
<g opacity="0.4">
<path fill-rule="evenodd" clip-rule="evenodd" d="M338.212 148.937C385.152 154.728 436.029 145.756 471.861 176.636C510.345 209.802 534.119 261.821 527.682 312.225C521.637 359.556 469.852 381.193 440.893 419.11C400.833 471.563 394.545 571.684 328.568 572.933C263.25 574.17 260.909 468.559 213.675 423.412C161.358 373.407 54.2896 372.921 44.3048 301.23C34.4037 230.14 110.475 172.922 174.19 139.907C224.735 113.716 281.717 141.966 338.212 148.937Z" stroke="#1A2935" stroke-opacity="0.5"/>
<path fill-rule="evenodd" clip-rule="evenodd" d="M303.197 7.01154C368.778 5.1889 443.172 23.2711 478.489 78.6153C511.57 130.454 465.811 193.961 461.665 255.336C457.885 311.31 489.633 372.529 455.625 417.123C419.081 465.042 352.489 482.515 292.504 477.157C235.72 472.084 197.089 426.092 152.867 390.077C97.6849 345.134 10.1478 316.169 7.45848 245.005C4.75609 173.497 85.7353 132.819 141.451 87.9824C190.292 48.6777 240.556 8.75249 303.197 7.01154Z" stroke="#1A2935" stroke-opacity="0.3"/>
<path fill-rule="evenodd" clip-rule="evenodd" d="M395.181 74.5568C462.983 57.2804 549.578 43.192 596.002 95.541C642.273 147.717 595.041 227.076 592.234 296.758C589.521 364.092 621.883 437.997 580.075 490.849C535.42 547.3 456.106 561.337 384.144 559.816C312.056 558.291 240.791 534.691 190.915 482.62C140.982 430.491 101.887 355.411 121.922 286.061C140.391 222.129 226.811 216.936 279.434 176.205C321.647 143.533 343.455 87.7372 395.181 74.5568Z" stroke="#1A2935"/>
</g>
</g>
<defs>
<clipPath id="clip0_2244_1555">
<rect width="618" height="579" fill="white"/>
</clipPath>
</defs>
</svg>
