<svg width="24" height="24" viewBox="0 0 24 24" fill="none" xmlns="http://www.w3.org/2000/svg">
<path fill-rule="evenodd" clip-rule="evenodd" d="M2 4C2 2.89543 2.89543 2 4 2H8C9.10457 2 10 2.89543 10 4V8C10 9.10457 9.10457 10 8 10H4C2.89543 10 2 9.10457 2 8V4ZM14 4C14 2.89543 14.8954 2 16 2H20C21.1046 2 22 2.89543 22 4V8C22 9.10457 21.1046 10 20 10H16C14.8954 10 14 9.10457 14 8V4ZM4 14C2.89543 14 2 14.8954 2 16V20C2 21.1046 2.89543 22 4 22H8C9.10457 22 10 21.1046 10 20V16C10 14.8954 9.10457 14 8 14H4Z" fill="white"/>
</svg>
